<mxfile host="app.diagrams.net" modified="2020-12-27T23:27:11.995Z" agent="5.0 (Windows NT 10.0; Win64; x64) AppleWebKit/537.36 (KHTML, like Gecko) Chrome/87.0.4280.88 Safari/537.36" etag="nFLOKRsm-unzlWsCsS2M" version="14.0.1" type="github">
  <diagram id="S476V2MaYOEgtNQLf-0Z" name="Page-1">
    <mxGraphModel dx="782" dy="469" grid="1" gridSize="10" guides="1" tooltips="1" connect="1" arrows="1" fold="1" page="1" pageScale="1" pageWidth="827" pageHeight="1169" math="0" shadow="0">
      <root>
        <mxCell id="0" />
        <mxCell id="1" parent="0" />
        <mxCell id="8IKuqq0BKS_zw-oYmEkh-10" style="edgeStyle=orthogonalEdgeStyle;rounded=0;orthogonalLoop=1;jettySize=auto;html=1;exitX=0.5;exitY=1;exitDx=0;exitDy=0;entryX=0.5;entryY=0;entryDx=0;entryDy=0;" edge="1" parent="1" source="8IKuqq0BKS_zw-oYmEkh-1" target="8IKuqq0BKS_zw-oYmEkh-2">
          <mxGeometry relative="1" as="geometry" />
        </mxCell>
        <mxCell id="8IKuqq0BKS_zw-oYmEkh-1" value="" style="ellipse;whiteSpace=wrap;html=1;" vertex="1" parent="1">
          <mxGeometry x="240" y="40" width="120" height="80" as="geometry" />
        </mxCell>
        <mxCell id="8IKuqq0BKS_zw-oYmEkh-11" style="edgeStyle=orthogonalEdgeStyle;rounded=0;orthogonalLoop=1;jettySize=auto;html=1;exitX=0.5;exitY=1;exitDx=0;exitDy=0;entryX=0.5;entryY=0;entryDx=0;entryDy=0;" edge="1" parent="1" source="8IKuqq0BKS_zw-oYmEkh-2" target="8IKuqq0BKS_zw-oYmEkh-3">
          <mxGeometry relative="1" as="geometry" />
        </mxCell>
        <mxCell id="8IKuqq0BKS_zw-oYmEkh-2" value="" style="rounded=0;whiteSpace=wrap;html=1;" vertex="1" parent="1">
          <mxGeometry x="240" y="140" width="120" height="60" as="geometry" />
        </mxCell>
        <mxCell id="8IKuqq0BKS_zw-oYmEkh-12" style="edgeStyle=orthogonalEdgeStyle;rounded=0;orthogonalLoop=1;jettySize=auto;html=1;exitX=0.5;exitY=1;exitDx=0;exitDy=0;entryX=0.5;entryY=0;entryDx=0;entryDy=0;" edge="1" parent="1" source="8IKuqq0BKS_zw-oYmEkh-3" target="8IKuqq0BKS_zw-oYmEkh-4">
          <mxGeometry relative="1" as="geometry" />
        </mxCell>
        <mxCell id="8IKuqq0BKS_zw-oYmEkh-3" value="" style="rounded=0;whiteSpace=wrap;html=1;" vertex="1" parent="1">
          <mxGeometry x="240" y="240" width="120" height="40" as="geometry" />
        </mxCell>
        <mxCell id="8IKuqq0BKS_zw-oYmEkh-14" style="edgeStyle=orthogonalEdgeStyle;rounded=0;orthogonalLoop=1;jettySize=auto;html=1;exitX=0;exitY=0.5;exitDx=0;exitDy=0;entryX=0;entryY=0.5;entryDx=0;entryDy=0;" edge="1" parent="1" source="8IKuqq0BKS_zw-oYmEkh-4" target="8IKuqq0BKS_zw-oYmEkh-9">
          <mxGeometry relative="1" as="geometry">
            <Array as="points">
              <mxPoint x="180" y="360" />
              <mxPoint x="180" y="870" />
            </Array>
          </mxGeometry>
        </mxCell>
        <mxCell id="8IKuqq0BKS_zw-oYmEkh-19" style="edgeStyle=orthogonalEdgeStyle;rounded=0;orthogonalLoop=1;jettySize=auto;html=1;exitX=0.5;exitY=1;exitDx=0;exitDy=0;entryX=0.5;entryY=0;entryDx=0;entryDy=0;" edge="1" parent="1" source="8IKuqq0BKS_zw-oYmEkh-4" target="8IKuqq0BKS_zw-oYmEkh-18">
          <mxGeometry relative="1" as="geometry" />
        </mxCell>
        <mxCell id="8IKuqq0BKS_zw-oYmEkh-4" value="" style="rhombus;whiteSpace=wrap;html=1;" vertex="1" parent="1">
          <mxGeometry x="240" y="320" width="120" height="80" as="geometry" />
        </mxCell>
        <mxCell id="8IKuqq0BKS_zw-oYmEkh-15" style="edgeStyle=orthogonalEdgeStyle;rounded=0;orthogonalLoop=1;jettySize=auto;html=1;exitX=0.5;exitY=1;exitDx=0;exitDy=0;entryX=0.5;entryY=0;entryDx=0;entryDy=0;" edge="1" parent="1" source="8IKuqq0BKS_zw-oYmEkh-5" target="8IKuqq0BKS_zw-oYmEkh-7">
          <mxGeometry relative="1" as="geometry" />
        </mxCell>
        <mxCell id="8IKuqq0BKS_zw-oYmEkh-5" value="" style="rounded=0;whiteSpace=wrap;html=1;" vertex="1" parent="1">
          <mxGeometry x="240" y="530" width="120" height="70" as="geometry" />
        </mxCell>
        <mxCell id="8IKuqq0BKS_zw-oYmEkh-6" style="edgeStyle=orthogonalEdgeStyle;rounded=0;orthogonalLoop=1;jettySize=auto;html=1;exitX=0.5;exitY=1;exitDx=0;exitDy=0;" edge="1" parent="1" source="8IKuqq0BKS_zw-oYmEkh-5" target="8IKuqq0BKS_zw-oYmEkh-5">
          <mxGeometry relative="1" as="geometry" />
        </mxCell>
        <mxCell id="8IKuqq0BKS_zw-oYmEkh-23" style="edgeStyle=orthogonalEdgeStyle;rounded=0;orthogonalLoop=1;jettySize=auto;html=1;exitX=0.5;exitY=1;exitDx=0;exitDy=0;entryX=0.5;entryY=0;entryDx=0;entryDy=0;" edge="1" parent="1" source="8IKuqq0BKS_zw-oYmEkh-7" target="8IKuqq0BKS_zw-oYmEkh-8">
          <mxGeometry relative="1" as="geometry" />
        </mxCell>
        <mxCell id="8IKuqq0BKS_zw-oYmEkh-24" style="edgeStyle=orthogonalEdgeStyle;rounded=0;orthogonalLoop=1;jettySize=auto;html=1;exitX=1;exitY=0.5;exitDx=0;exitDy=0;entryX=1;entryY=0.5;entryDx=0;entryDy=0;" edge="1" parent="1" source="8IKuqq0BKS_zw-oYmEkh-7" target="8IKuqq0BKS_zw-oYmEkh-18">
          <mxGeometry relative="1" as="geometry" />
        </mxCell>
        <mxCell id="8IKuqq0BKS_zw-oYmEkh-7" value="" style="rhombus;whiteSpace=wrap;html=1;" vertex="1" parent="1">
          <mxGeometry x="240" y="640" width="120" height="80" as="geometry" />
        </mxCell>
        <mxCell id="8IKuqq0BKS_zw-oYmEkh-22" style="edgeStyle=orthogonalEdgeStyle;rounded=0;orthogonalLoop=1;jettySize=auto;html=1;exitX=1;exitY=0.5;exitDx=0;exitDy=0;entryX=1;entryY=0.5;entryDx=0;entryDy=0;" edge="1" parent="1" source="8IKuqq0BKS_zw-oYmEkh-8" target="8IKuqq0BKS_zw-oYmEkh-4">
          <mxGeometry relative="1" as="geometry">
            <Array as="points">
              <mxPoint x="400" y="790" />
              <mxPoint x="400" y="360" />
            </Array>
          </mxGeometry>
        </mxCell>
        <mxCell id="8IKuqq0BKS_zw-oYmEkh-8" value="" style="rounded=0;whiteSpace=wrap;html=1;" vertex="1" parent="1">
          <mxGeometry x="240" y="770" width="120" height="40" as="geometry" />
        </mxCell>
        <mxCell id="8IKuqq0BKS_zw-oYmEkh-9" value="" style="ellipse;whiteSpace=wrap;html=1;" vertex="1" parent="1">
          <mxGeometry x="240" y="830" width="120" height="80" as="geometry" />
        </mxCell>
        <mxCell id="8IKuqq0BKS_zw-oYmEkh-20" style="edgeStyle=orthogonalEdgeStyle;rounded=0;orthogonalLoop=1;jettySize=auto;html=1;exitX=0.5;exitY=1;exitDx=0;exitDy=0;entryX=0.5;entryY=0;entryDx=0;entryDy=0;" edge="1" parent="1" source="8IKuqq0BKS_zw-oYmEkh-18" target="8IKuqq0BKS_zw-oYmEkh-5">
          <mxGeometry relative="1" as="geometry" />
        </mxCell>
        <mxCell id="8IKuqq0BKS_zw-oYmEkh-21" style="edgeStyle=orthogonalEdgeStyle;rounded=0;orthogonalLoop=1;jettySize=auto;html=1;exitX=0;exitY=0.5;exitDx=0;exitDy=0;entryX=0;entryY=0.5;entryDx=0;entryDy=0;" edge="1" parent="1" source="8IKuqq0BKS_zw-oYmEkh-18" target="8IKuqq0BKS_zw-oYmEkh-8">
          <mxGeometry relative="1" as="geometry" />
        </mxCell>
        <mxCell id="8IKuqq0BKS_zw-oYmEkh-18" value="" style="rhombus;whiteSpace=wrap;html=1;" vertex="1" parent="1">
          <mxGeometry x="240" y="420" width="120" height="80" as="geometry" />
        </mxCell>
        <mxCell id="8IKuqq0BKS_zw-oYmEkh-25" value="Начало" style="text;html=1;strokeColor=none;fillColor=none;align=center;verticalAlign=middle;whiteSpace=wrap;rounded=0;" vertex="1" parent="1">
          <mxGeometry x="250" y="70" width="100" height="20" as="geometry" />
        </mxCell>
        <mxCell id="8IKuqq0BKS_zw-oYmEkh-26" value="int x[10], int t, i, j;&lt;br&gt;int n = sizeof(x) / sizeof(int);" style="text;html=1;strokeColor=none;fillColor=none;align=center;verticalAlign=middle;whiteSpace=wrap;rounded=0;" vertex="1" parent="1">
          <mxGeometry x="240" y="140" width="120" height="60" as="geometry" />
        </mxCell>
        <mxCell id="8IKuqq0BKS_zw-oYmEkh-27" value="&lt;div&gt;i = 1;&lt;/div&gt;&lt;div&gt;&lt;span&gt;	&lt;/span&gt;j = 2;&lt;/div&gt;" style="text;html=1;strokeColor=none;fillColor=none;align=center;verticalAlign=middle;whiteSpace=wrap;rounded=0;" vertex="1" parent="1">
          <mxGeometry x="240" y="240" width="120" height="40" as="geometry" />
        </mxCell>
        <mxCell id="8IKuqq0BKS_zw-oYmEkh-28" value="i &amp;lt; n" style="text;html=1;strokeColor=none;fillColor=none;align=center;verticalAlign=middle;whiteSpace=wrap;rounded=0;" vertex="1" parent="1">
          <mxGeometry x="260" y="350" width="80" height="20" as="geometry" />
        </mxCell>
        <mxCell id="8IKuqq0BKS_zw-oYmEkh-29" value="x[i - 1] &amp;lt; x[i]" style="text;html=1;strokeColor=none;fillColor=none;align=center;verticalAlign=middle;whiteSpace=wrap;rounded=0;" vertex="1" parent="1">
          <mxGeometry x="260" y="450" width="80" height="20" as="geometry" />
        </mxCell>
        <mxCell id="8IKuqq0BKS_zw-oYmEkh-30" value="&lt;div&gt;t = x[i];&lt;/div&gt;&lt;div&gt;&lt;span&gt;			&lt;/span&gt;x[i] = x[i - 1];&lt;/div&gt;&lt;div&gt;&lt;span&gt;			&lt;/span&gt;x[i - 1] = t;&lt;/div&gt;&lt;div&gt;&lt;span&gt;			&lt;/span&gt;i--;&lt;/div&gt;" style="text;html=1;strokeColor=none;fillColor=none;align=center;verticalAlign=middle;whiteSpace=wrap;rounded=0;" vertex="1" parent="1">
          <mxGeometry x="240" y="530" width="120" height="70" as="geometry" />
        </mxCell>
        <mxCell id="8IKuqq0BKS_zw-oYmEkh-31" value="i &amp;gt; 0;" style="text;html=1;strokeColor=none;fillColor=none;align=center;verticalAlign=middle;whiteSpace=wrap;rounded=0;" vertex="1" parent="1">
          <mxGeometry x="260" y="670" width="80" height="20" as="geometry" />
        </mxCell>
        <mxCell id="8IKuqq0BKS_zw-oYmEkh-32" value="i = j++;" style="text;html=1;strokeColor=none;fillColor=none;align=center;verticalAlign=middle;whiteSpace=wrap;rounded=0;" vertex="1" parent="1">
          <mxGeometry x="240" y="770" width="120" height="40" as="geometry" />
        </mxCell>
        <mxCell id="8IKuqq0BKS_zw-oYmEkh-33" value="Конец" style="text;html=1;strokeColor=none;fillColor=none;align=center;verticalAlign=middle;whiteSpace=wrap;rounded=0;" vertex="1" parent="1">
          <mxGeometry x="250" y="860" width="100" height="20" as="geometry" />
        </mxCell>
        <mxCell id="8IKuqq0BKS_zw-oYmEkh-34" value="НЕТ" style="text;html=1;strokeColor=none;fillColor=none;align=center;verticalAlign=middle;whiteSpace=wrap;rounded=0;" vertex="1" parent="1">
          <mxGeometry x="200" y="343" width="40" height="20" as="geometry" />
        </mxCell>
        <mxCell id="8IKuqq0BKS_zw-oYmEkh-35" value="ДА" style="text;html=1;strokeColor=none;fillColor=none;align=center;verticalAlign=middle;whiteSpace=wrap;rounded=0;" vertex="1" parent="1">
          <mxGeometry x="295" y="397" width="40" height="20" as="geometry" />
        </mxCell>
        <mxCell id="8IKuqq0BKS_zw-oYmEkh-36" value="НЕТ" style="text;html=1;strokeColor=none;fillColor=none;align=center;verticalAlign=middle;whiteSpace=wrap;rounded=0;" vertex="1" parent="1">
          <mxGeometry x="210" y="440" width="40" height="20" as="geometry" />
        </mxCell>
        <mxCell id="8IKuqq0BKS_zw-oYmEkh-37" value="ДА" style="text;html=1;strokeColor=none;fillColor=none;align=center;verticalAlign=middle;whiteSpace=wrap;rounded=0;" vertex="1" parent="1">
          <mxGeometry x="294" y="500" width="40" height="20" as="geometry" />
        </mxCell>
        <mxCell id="8IKuqq0BKS_zw-oYmEkh-39" value="ДА" style="text;html=1;strokeColor=none;fillColor=none;align=center;verticalAlign=middle;whiteSpace=wrap;rounded=0;" vertex="1" parent="1">
          <mxGeometry x="348" y="663" width="40" height="20" as="geometry" />
        </mxCell>
        <mxCell id="8IKuqq0BKS_zw-oYmEkh-41" value="НЕТ" style="text;html=1;strokeColor=none;fillColor=none;align=center;verticalAlign=middle;whiteSpace=wrap;rounded=0;" vertex="1" parent="1">
          <mxGeometry x="295" y="724" width="40" height="20" as="geometry" />
        </mxCell>
      </root>
    </mxGraphModel>
  </diagram>
</mxfile>
